<?xml version="1.0" encoding="UTF-8" standalone="no"?>
<svg width="1024px" height="1024px" viewBox="0 0 1024 1024" version="1.1" xmlns="http://www.w3.org/2000/svg" xmlns:xlink="http://www.w3.org/1999/xlink" xmlns:sketch="http://www.bohemiancoding.com/sketch/ns">
    <!-- Generator: Sketch 3.3.3 (12072) - http://www.bohemiancoding.com/sketch -->
    <title>FoxPocket-circular</title>
    <desc>Created with Sketch.</desc>
    <defs>
        <path id="path-1" d="M0,0 L700,0 L665,571.175089 L350.000011,699.317073 L35,571.175091 L0,0 Z"></path>
        <path id="path-3" d="M0,0 L700,0 L665,571.175089 L350.000011,699.317073 L35,571.175091 L0,0 Z"></path>
        <path id="path-5" d="M0,0 L651,0 L618.45,531.192833 L325.50001,650.364878 L32.55,531.192835 L0,0 Z"></path>
        <path id="path-7" d="M0,0 L651,0 L618.45,531.192833 L325.50001,650.364878 L32.55,531.192835 L0,0 Z"></path>
        <path id="path-9" d="M0,0 L700,0 L665,571.175089 L350.000011,699.317073 L35,571.175091 L0,0 Z"></path>
        <path id="path-11" d="M0,0 L700,0 L665,571.175089 L350.000011,699.317073 L35,571.175091 L0,0 Z"></path>
        <path id="path-13" d="M0,0 L700,0 L665,571.175089 L350.000011,699.317073 L35,571.175091 L0,0 Z"></path>
        <path id="path-15" d="M0,0 L700,0 L665,571.175089 L350.000011,699.317073 L35,571.175091 L0,0 Z"></path>
    </defs>
    <g id="Page-1" stroke="none" stroke-width="1" fill="none" fill-rule="evenodd" sketch:type="MSPage">
        <path d="M512,1024 C794.769792,1024 1024,794.769792 1024,512 C1024,229.230208 794.769792,0 512,0 C229.230208,0 0,229.230208 0,512 C0,794.769792 229.230208,1024 512,1024 Z" id="Oval-1" fill="#FF9500" sketch:type="MSShapeGroup"></path>
        <g id="Group" sketch:type="MSLayerGroup" transform="translate(162.000000, 232.000000)">
            <path d="M0,0 L700,0 L665,571.175089 L350.000011,699.317073 L35,571.175091 L0,0 Z" id="Path-1" fill="#FFFFFF" sketch:type="MSShapeGroup"></path>
            <path d="M35,34.9658537 L665,34.9658537 L633.5,549.023434 L350.00001,664.35122 L66.5,549.023436 L35,34.9658537 Z" id="Path-1-Copy" stroke="#FF9500" stroke-width="5" stroke-dasharray="8" sketch:type="MSShapeGroup"></path>
            <g id="left-big">
                <mask id="mask-2" sketch:name="Mask" fill="white">
                    <use xlink:href="#path-1"></use>
                </mask>
                <use id="Mask" sketch:type="MSShapeGroup" xlink:href="#path-1"></use>
                <ellipse id="Oval-1" stroke="#FF9500" stroke-width="5" stroke-dasharray="8" sketch:type="MSShapeGroup" mask="url(#mask-2)" cx="95.375" cy="635.50439" rx="286.125" ry="285.845854"></ellipse>
            </g>
            <g id="right-big" transform="translate(350.000000, 350.000000) scale(-1, 1) translate(-350.000000, -350.000000) ">
                <mask id="mask-4" sketch:name="Mask" fill="white">
                    <use xlink:href="#path-3"></use>
                </mask>
                <use id="Mask" sketch:type="MSShapeGroup" xlink:href="#path-3"></use>
                <ellipse id="Oval-1" stroke="#FF9500" stroke-width="5" stroke-dasharray="8" sketch:type="MSShapeGroup" mask="url(#mask-4)" cx="95.375" cy="635.50439" rx="286.125" ry="285.845854"></ellipse>
            </g>
            <g id="right-small" transform="translate(374.500000, 374.452195) scale(-1, 1) translate(-374.500000, -374.452195) translate(49.000000, 48.952195)">
                <mask id="mask-6" sketch:name="Mask" fill="white">
                    <use xlink:href="#path-5"></use>
                </mask>
                <use id="Mask" sketch:type="MSShapeGroup" xlink:href="#path-5"></use>
                <ellipse id="Oval-1" stroke="#FF9500" stroke-width="5" stroke-dasharray="8" sketch:type="MSShapeGroup" mask="url(#mask-6)" cx="88.69875" cy="591.019083" rx="266.09625" ry="265.836644"></ellipse>
            </g>
            <g id="left-small" transform="translate(0.000000, 48.952195)">
                <mask id="mask-8" sketch:name="Mask" fill="white">
                    <use xlink:href="#path-7"></use>
                </mask>
                <use id="Mask" sketch:type="MSShapeGroup" xlink:href="#path-7"></use>
                <ellipse id="Oval-1" stroke="#FF9500" stroke-width="5" stroke-dasharray="8" sketch:type="MSShapeGroup" mask="url(#mask-8)" cx="88.69875" cy="591.019083" rx="266.09625" ry="265.836644"></ellipse>
            </g>
            <g id="center-down" transform="translate(350.000000, 350.000000) scale(-1, 1) translate(-350.000000, -350.000000) ">
                <mask id="mask-10" sketch:name="Mask" fill="white">
                    <use xlink:href="#path-9"></use>
                </mask>
                <use id="Mask" sketch:type="MSShapeGroup" xlink:href="#path-9"></use>
                <ellipse id="Oval-1" stroke="#FF9500" stroke-width="5" stroke-dasharray="8" sketch:type="MSShapeGroup" mask="url(#mask-10)" cx="350.875" cy="577.810732" rx="286.125" ry="285.845854"></ellipse>
            </g>
            <g id="center-up" transform="translate(350.000000, 350.000000) scale(-1, 1) translate(-350.000000, -350.000000) ">
                <mask id="mask-12" sketch:name="Mask" fill="white">
                    <use xlink:href="#path-11"></use>
                </mask>
                <use id="Mask" sketch:type="MSShapeGroup" xlink:href="#path-11"></use>
                <path d="M350.875,349.658537 C508.897474,349.658537 637,221.680989 637,63.8126829 C637,-94.0556228 508.897474,-222.033171 350.875,-222.033171 C192.852526,-222.033171 64.75,-94.0556228 64.75,63.8126829 C64.75,221.680989 192.852526,349.658537 350.875,349.658537 Z" id="Oval-1" stroke="#FF9500" stroke-width="5" stroke-dasharray="8" sketch:type="MSShapeGroup" mask="url(#mask-12)"></path>
            </g>
            <g id="left-ear" transform="translate(350.000000, 350.000000) scale(-1, 1) translate(-350.000000, -350.000000) ">
                <mask id="mask-14" sketch:name="Mask" fill="white">
                    <use xlink:href="#path-13"></use>
                </mask>
                <use id="Mask" sketch:type="MSShapeGroup" xlink:href="#path-13"></use>
                <path d="M597.625,699.317073 C734.384511,699.317073 845.25,588.559746 845.25,451.933659 C845.25,315.307571 734.384511,204.550244 597.625,204.550244 C460.865489,204.550244 350,315.307571 350,451.933659 C350,588.559746 460.865489,699.317073 597.625,699.317073 Z" id="Oval-1" stroke="#FF9500" stroke-width="5" stroke-dasharray="8" sketch:type="MSShapeGroup" mask="url(#mask-14)"></path>
            </g>
            <g id="right-ear">
                <mask id="mask-16" sketch:name="Mask" fill="white">
                    <use xlink:href="#path-15"></use>
                </mask>
                <use id="Mask" sketch:type="MSShapeGroup" xlink:href="#path-15"></use>
                <path d="M597.625,699.317073 C734.384511,699.317073 845.25,588.559746 845.25,451.933659 C845.25,315.307571 734.384511,204.550244 597.625,204.550244 C460.865489,204.550244 350,315.307571 350,451.933659 C350,588.559746 460.865489,699.317073 597.625,699.317073 Z" id="Oval-1" stroke="#FF9500" stroke-width="5" stroke-dasharray="8" sketch:type="MSShapeGroup" mask="url(#mask-16)"></path>
            </g>
            <ellipse id="right-eye" stroke="#FF9500" stroke-width="5" stroke-dasharray="8" sketch:type="MSShapeGroup" cx="384.179688" cy="366.731707" rx="17.0898438" ry="17.0731707"></ellipse>
            <ellipse id="left-eye" stroke="#FF9500" stroke-width="5" stroke-dasharray="8" sketch:type="MSShapeGroup" cx="315.820312" cy="366.731707" rx="17.0898438" ry="17.0731707"></ellipse>
        </g>
    </g>
</svg>