<?xml version="1.0" encoding="UTF-8" standalone="no"?>
<svg width="400px" height="400px" viewBox="0 0 400 400" version="1.1" xmlns="http://www.w3.org/2000/svg" xmlns:xlink="http://www.w3.org/1999/xlink" xmlns:sketch="http://www.bohemiancoding.com/sketch/ns">
    <!-- Generator: Sketch 3.3.3 (12072) - http://www.bohemiancoding.com/sketch -->
    <title>FoxPocket</title>
    <desc>Created with Sketch.</desc>
    <defs></defs>
    <g id="Page-1" stroke="none" stroke-width="1" fill="none" fill-rule="evenodd" sketch:type="MSPage">
        <path d="M200,400 C310.45695,400 400,300 400,300 C400,300 310.45695,200 200,200 C89.54305,200 -6.0514776e-16,300 0,300 C6.0514776e-16,300 89.54305,400 200,400 Z" id="Oval-2" fill="#FC1147" sketch:type="MSShapeGroup"></path>
        <rect id="Rectangle-1" fill="#FC1147" sketch:type="MSShapeGroup" x="0" y="0" width="400" height="300" rx="40"></rect>
        <rect id="Rectangle-2" fill="#FC1147" sketch:type="MSShapeGroup" x="0" y="250" width="400" height="50"></rect>
        <g id="Group" sketch:type="MSLayerGroup" transform="translate(76.000000, 108.000000)" stroke="#FFFFFF">
            <path d="M125.28749,175.211509 L247.98749,113.861509" id="Line-Copy" stroke-width="10" stroke-linecap="square" sketch:type="MSShapeGroup"></path>
            <path d="M0.0244919479,175.211509 L122.724492,113.861509" id="Line-Copy-2" stroke-width="10" stroke-linecap="square" sketch:type="MSShapeGroup" transform="translate(61.374492, 144.536509) scale(-1, 1) translate(-61.374492, -144.536509) "></path>
            <path d="M123.724492,179.630769 L103.082053,105.81363 L79.7030207,103.092308" id="Path-4" stroke-width="10" sketch:type="MSShapeGroup"></path>
            <path d="M125.28749,179.630769 L144.929929,105.81363 L168.308962,103.092308" id="Path-4-Copy" stroke-width="10" sketch:type="MSShapeGroup"></path>
            <ellipse id="Oval-1" stroke-width="5" fill="#9B9B9B" sketch:type="MSShapeGroup" cx="124.005991" cy="175.211509" rx="9.20245399" ry="9.18461538"></ellipse>
            <path d="M0.0244919479,113.861509 C15.451783,81.7811322 46.7689067,27.7020503 124.946607,27.6182092 C203.124307,27.534368 227.377828,80.9260506 247.98749,113.861509" id="Path-6" stroke-width="10" sketch:type="MSShapeGroup"></path>
            <path d="M42.2070849,61.1575515 C42.2070849,61.1575515 25.4099746,8.93135585 42.2070852,1.26022433 C59.0041959,-6.4109072 92.0926532,30.129576 92.0926532,30.129576" id="Path-7" stroke-width="10" sketch:type="MSShapeGroup"></path>
            <path d="M207.326657,61.1575515 C207.326657,61.1575515 224.123768,8.93135585 207.326657,1.26022433 C190.529546,-6.4109072 157.441089,30.129576 157.441089,30.129576" id="Path-7-Copy" stroke-width="10" sketch:type="MSShapeGroup"></path>
        </g>
    </g>
</svg>